# xmcd
#
# Track frame offsets:
#	150
#	13883
#	30212
#	49693
#	69822
#	83232
#	98971
#
# Disc length: 1524 seconds
#
# Revision: 0
# Processed by: cddbd v1.4PL0 Copyright (c) Steve Scherf et al.
# Submitted via: EasyCDDAExtractor 4.5.0.1
#
DISCID=4905f207
DTITLE=rob garland and the blue monks - when it's all said and done
DYEAR=2003
DGENRE=blues
TTITLE0=never be the same
TTITLE1=where my baby be
TTITLE2=tide
TTITLE3=change in the weather
TTITLE4=when it's all said and done
TTITLE5=el monk
TTITLE6=can't take that away
EXTD=
EXTT0=
EXTT1=
EXTT2=
EXTT3=
EXTT4=
EXTT5=
EXTT6=
PLAYORDER=
